<svg width="15" height="14" viewBox="0 0 15 14" fill="none" xmlns="http://www.w3.org/2000/svg">
<path d="M1.5 7.07778C1.33432 7.07778 1.2 6.94346 1.2 6.77778V1C1.2 0.834313 1.33431 0.7 1.5 0.7H5.72222C5.88791 0.7 6.02222 0.834315 6.02222 1V6.77778C6.02222 6.94346 5.88791 7.07778 5.72222 7.07778H1.5ZM1.5 13.3C1.33431 13.3 1.2 13.1657 1.2 13V10.3333C1.2 10.1676 1.33431 10.0333 1.5 10.0333H5.72222C5.88791 10.0333 6.02222 10.1676 6.02222 10.3333V13C6.02222 13.1657 5.88791 13.3 5.72222 13.3H1.5ZM9.27778 13.3C9.11209 13.3 8.97778 13.1657 8.97778 13V7.22222C8.97778 7.05654 9.11209 6.92222 9.27778 6.92222H13.5C13.6657 6.92222 13.8 7.05654 13.8 7.22222V13C13.8 13.1657 13.6657 13.3 13.5 13.3H9.27778ZM8.97778 1C8.97778 0.834314 9.11209 0.7 9.27778 0.7H13.5C13.6657 0.7 13.8 0.834314 13.8 0.999999V3.66667C13.8 3.83235 13.6657 3.96667 13.5 3.96667H9.27778C9.11209 3.96667 8.97778 3.83235 8.97778 3.66667V1Z" stroke="#6A707E" stroke-width="1.4"/>
</svg>
